<svg width="24" height="24" viewBox="0 0 24 24" fill="none" xmlns="http://www.w3.org/2000/svg">
<g id="Iconsax/Bulk/ticksquare">
<path id="Vector" opacity="0.4" d="M16.19 2H7.81C4.17 2 2 4.17 2 7.81V16.18C2 19.83 4.17 22 7.81 22H16.18C19.82 22 21.99 19.83 21.99 16.19V7.81C22 4.17 19.83 2 16.19 2Z" fill="#6938EF"/>
<path id="Vector_2" d="M10.58 15.582C10.3812 15.5818 10.1905 15.5027 10.05 15.362L7.22002 12.532C7.08054 12.3909 7.00232 12.2004 7.00232 12.002C7.00232 11.8036 7.08054 11.6131 7.22002 11.472C7.51002 11.182 7.99002 11.182 8.28002 11.472L10.58 13.772L15.72 8.63201C16.01 8.34201 16.49 8.34201 16.78 8.63201C17.07 8.922 17.07 9.40201 16.78 9.69201L11.11 15.362C10.9695 15.5027 10.7789 15.5818 10.58 15.582Z" fill="#6938EF"/>
</g>
</svg>
