<svg width="22" height="20" viewBox="0 0 22 20" fill="none" xmlns="http://www.w3.org/2000/svg">
<g id="&#240;&#159;&#166;&#134; icon &#34;close outline&#34;">
<path id="Vector" d="M12.2696 9.99999L16.0087 6.42499C16.1724 6.26807 16.2644 6.05524 16.2644 5.83333C16.2644 5.61141 16.1724 5.39858 16.0087 5.24166C15.845 5.08474 15.6229 4.99658 15.3913 4.99658C15.1597 4.99658 14.9377 5.08474 14.7739 5.24166L11.0435 8.82499L7.31304 5.24166C7.1493 5.08474 6.92722 4.99658 6.69565 4.99658C6.46409 4.99658 6.242 5.08474 6.07826 5.24166C5.91452 5.39858 5.82253 5.61141 5.82253 5.83333C5.82253 6.05524 5.91452 6.26807 6.07826 6.42499L9.81739 9.99999L6.07826 13.575C5.99676 13.6525 5.93207 13.7446 5.88792 13.8462C5.84377 13.9477 5.82104 14.0566 5.82104 14.1667C5.82104 14.2767 5.84377 14.3856 5.88792 14.4871C5.93207 14.5887 5.99676 14.6809 6.07826 14.7583C6.1591 14.8364 6.25527 14.8984 6.36124 14.9407C6.4672 14.983 6.58086 15.0048 6.69565 15.0048C6.81045 15.0048 6.9241 14.983 7.03007 14.9407C7.13603 14.8984 7.23221 14.8364 7.31304 14.7583L11.0435 11.175L14.7739 14.7583C14.8548 14.8364 14.9509 14.8984 15.0569 14.9407C15.1629 14.983 15.2765 15.0048 15.3913 15.0048C15.5061 15.0048 15.6198 14.983 15.7257 14.9407C15.8317 14.8984 15.9279 14.8364 16.0087 14.7583C16.0902 14.6809 16.1549 14.5887 16.199 14.4871C16.2432 14.3856 16.2659 14.2767 16.2659 14.1667C16.2659 14.0566 16.2432 13.9477 16.199 13.8462C16.1549 13.7446 16.0902 13.6525 16.0087 13.575L12.2696 9.99999Z" fill="#6938EF"/>
</g>
</svg>
